#!OML:ASF E:\inclinewalkrobotboard\Project 1\Capture day 1\Session 1\subject1.ASF
:FULLY-SPECIFIED
:DEGREES
361
root 8.60074 16.547 12.1599 10.4104 -5.22836 0.362339
lowerback -2.03754 5.07387 -5.70674
upperback 3.37061 7.02791 -0.432947
thorax 4.00694 3.31746 3.06608
lowerneck -6.21005 0.439821 -1.54656
upperneck 28.3113 0.345511 2.38237
head 9.97341 0.291552 1.14794
rclavicle -8.01351e-016 -6.57232e-015
rhumerus -13.9354 -0.582392 -94.6428
rradius 29.3735
rwrist 9.0903
rhand -12.4351 -38.5919
rfingers 7.12502
rthumb 13.6377 -68.1251
lclavicle -8.01351e-016 -6.57232e-015
lhumerus -32.3589 22.2114 72.0427
lradius 7.46401
lwrist -38.023
lhand -25.0401 -18.1317
lfingers 7.12502
lthumb 1.4728 11.843
rfemur 1.05057 10.5203 14.7718
rtibia 24.9063
rfoot -27.065 -3.59264
rtoes -37.2666
lfemur -36.3865 -4.97983 -11.1122
ltibia 32.9586
lfoot -16.7173 11.0631
ltoes -58.4503
362
root 8.66628 16.6016 12.2965 11.6584 -6.11075 0.220205
lowerback -1.96319 5.4474 -6.66553
upperback 2.79498 7.54475 -0.924782
thorax 3.26758 3.59025 3.04856
lowerneck -6.19617 0.228614 -1.34015
upperneck 27.8256 -0.0612746 2.68262
head 9.80267 0.155135 1.17054
rclavicle -1.03368e-014 2.5842e-014
rhumerus -14.6193 -1.86687 -95.2975
rradius 28.8875
rwrist 10.019
rhand -13.5811 -38.3795
rfingers 7.12502
rthumb 12.533 -67.9837
lclavicle -1.03368e-014 2.5842e-014
lhumerus -31.9772 22.1116 71.7191
lradius 8.39743
lwrist -37.9567
lhand -23.7003 -17.1636
lfingers 7.12502
lthumb 2.76682 12.7982
rfemur -1.32687 11.3753 14.2477
rtibia 26.6399
rfoot -26.4906 -3.59798
rtoes -37.4793
lfemur -37.4445 -4.40607 -10.9623
ltibia 33.655
lfoot -17.6878 11.1623
ltoes -58.5583
363
root 8.75646 16.6575 12.4761 12.921 -6.02045 -0.0782254
lowerback -2.51493 5.44333 -6.81667
upperback 2.42419 7.58589 -1.32367
thorax 3.22281 3.61998 2.761
lowerneck -6.59245 -0.244233 -1.71042
upperneck 27.4909 -0.806147 3.24206
head 9.77808 -0.167196 1.35288
rclavicle 7.63333e-014 -3.37934e-014
rhumerus -15.2696 -2.86211 -95.7917
rradius 28.2913
rwrist 10.8555
rhand -14.8276 -38.159
rfingers 7.12502
rthumb 11.3311 -67.8329
lclavicle 7.63333e-014 -3.37934e-014
lhumerus -31.4533 22.1861 71.4896
lradius 9.09535
lwrist -38.675
lhand -23.1237 -17.4452
lfingers 7.12502
lthumb 3.3236 12.5086
rfemur -2.64039 10.9444 13.9293
rtibia 26.9689
rfoot -26.2205 -3.24204
rtoes -38.0225
lfemur -38.073 -4.76655 -10.9474
ltibia 33.5972
lfoot -18.3098 11.0533
ltoes -58.4626
364
root 8.83813 16.7175 12.6592 13.8807 -5.59495 -0.787151
lowerback -3.02018 5.36506 -6.44738
upperback 2.31749 7.50923 -1.47503
thorax 3.46808 3.58581 2.45544
lowerneck -5.89563 -0.121695 -1.60572
upperneck 26.3764 -0.68953 3.45951
head 9.24276 -0.092616 1.40591
rclavicle -3.17062e-014 1.19271e-014
rhumerus -15.7756 -3.80025 -95.9934
rradius 27.9007
rwrist 11.9055
rhand -14.5356 -38.1935
rfingers 7.12502
rthumb 11.6126 -67.8517
lclavicle -3.17062e-014 1.19271e-014
lhumerus -30.7293 22.4182 71.417
lradius 9.51527
lwrist -40.5508
lhand -24.673 -20.1994
lfingers 7.12502
lthumb 1.82741 9.77249
rfemur -3.34651 10.4949 14.4024
rtibia 26.8213
rfoot -26.3429 -3.10101
rtoes -37.6783
lfemur -38.1064 -5.34837 -10.4387
ltibia 33.0816
lfoot -18.7694 10.9363
ltoes -58.2362
365
root 8.90345 16.7834 12.804 14.4706 -5.24801 -1.13818
lowerback -2.83727 5.33314 -6.60575
upperback 2.29994 7.45816 -1.53519
thorax 3.34004 3.56179 2.45656
lowerneck -5.8716 -0.293679 -1.61196
upperneck 25.601 -0.869732 3.27847
head 8.97073 -0.200918 1.31866
rclavicle -1.32192e-014 -5.96354e-015
rhumerus -16.3279 -4.3083 -95.791
rradius 27.7309
rwrist 12.7306
rhand -13.7067 -37.997
rfingers 7.12502
rthumb 12.4119 -67.6085
lclavicle -1.32192e-014 -5.96354e-015
lhumerus -29.8853 22.7319 71.6088
lradius 10.2087
lwrist -42.0742
lhand -24.9591 -21.3705
lfingers 7.12502
lthumb 1.55106 8.60364
rfemur -4.21442 10.3562 14.6788
rtibia 27.096
rfoot -26.4149 -3.79468
rtoes -38.3799
lfemur -37.907 -6.07262 -10.2076
ltibia 32.5503
lfoot -19.239 10.9735
ltoes -58.0672
